<?xml version="1.0" encoding="UTF-8" standalone="no"?>
<!-- Created with Inkscape (http://www.inkscape.org/) -->

<svg
   xmlns:dc="http://purl.org/dc/elements/1.1/"
   xmlns:cc="http://creativecommons.org/ns#"
   xmlns:rdf="http://www.w3.org/1999/02/22-rdf-syntax-ns#"
   xmlns:svg="http://www.w3.org/2000/svg"
   xmlns="http://www.w3.org/2000/svg"
   xmlns:sodipodi="http://sodipodi.sourceforge.net/DTD/sodipodi-0.dtd"
   xmlns:inkscape="http://www.inkscape.org/namespaces/inkscape"
   width="250mm"
   height="50mm"
   viewBox="0 0 250 50"
   version="1.1"
   id="svg8"
   inkscape:version="0.92.0 r15299"
   sodipodi:docname="voo_livre_alt.svg">
  <defs
     id="defs2" />
  <sodipodi:namedview
     id="base"
     pagecolor="#ffffff"
     bordercolor="#666666"
     borderopacity="1.0"
     inkscape:pageopacity="0.0"
     inkscape:pageshadow="2"
     inkscape:zoom="2.5341108"
     inkscape:cx="175.00333"
     inkscape:cy="93.267291"
     inkscape:document-units="mm"
     inkscape:current-layer="layer1"
     showgrid="false"
     showguides="false"
     inkscape:measure-start="849.919,484.312"
     inkscape:measure-end="802.716,402.602"
     inkscape:window-width="1366"
     inkscape:window-height="705"
     inkscape:window-x="-8"
     inkscape:window-y="-8"
     inkscape:window-maximized="1" />
  <metadata
     id="metadata5">
    <rdf:RDF>
      <cc:Work
         rdf:about="">
        <dc:format>image/svg+xml</dc:format>
        <dc:type
           rdf:resource="http://purl.org/dc/dcmitype/StillImage" />
        <dc:title></dc:title>
      </cc:Work>
    </rdf:RDF>
  </metadata>
  <g
     inkscape:label="Camada 1"
     inkscape:groupmode="layer"
     id="layer1"
     transform="translate(0,-247)">
    <flowRoot
       xml:space="preserve"
       id="flowRoot3942"
       style="font-style:normal;font-weight:normal;font-size:40px;line-height:25px;font-family:sans-serif;letter-spacing:0px;word-spacing:0px;fill:#000000;fill-opacity:1;stroke:none"><flowRegion
         id="flowRegion3944"><rect
           id="rect3946"
           width="949.69464"
           height="459.96182"
           x="135.45801"
           y="144.69318" /></flowRegion><flowPara
         id="flowPara3948" /></flowRoot>    <flowRoot
       xml:space="preserve"
       id="flowRoot3965"
       style="font-style:normal;font-weight:normal;font-size:40px;line-height:25px;font-family:sans-serif;letter-spacing:0px;word-spacing:0px;fill:#000000;fill-opacity:1;stroke:none"><flowRegion
         id="flowRegion3967"><rect
           id="rect3969"
           width="221.7939"
           height="44.65649"
           x="781.48853"
           y="414.12067" /></flowRegion><flowPara
         id="flowPara3971" /></flowRoot>    <g
       id="g4982"
       transform="translate(-22.797171,115.47243)">
      <path
         transform="matrix(0.26458333,0,0,0.26458333,0,87)"
         id="path6589"
         d="m 375.61133,214.98438 -9.77344,16.93554 3.31055,0.21875 -3.4668,0.0527 -4.06641,7.04297 7.14649,0.43554 -7.44141,0.0762 -3.14258,5.44532 9.8125,0.5039 -10.28711,0.31836 -3.80468,6.5918 13.32226,0.62305 -13.80468,0.21484 -3.375,5.84766 16.79296,0.96679 -17.5625,0.36719 -3.22265,5.58398 20.59375,1.07813 -21.54297,0.56641 -2.85156,4.9414 24.20117,1.01953 -25.17383,0.66602 -2.70898,4.69141 27.49804,1.16992 -28.78906,1.07031 -3.14453,5.44531 31.74023,1.51953 -33.22851,1.0625 -4.23438,7.33594 h 94.4043 l -12.53125,-21.71484 h -43.83203 l 21.91601,-37.97657 z"
         style="fill:#0000ff;stroke:#000000;stroke-width:0.49941713px;stroke-linecap:butt;stroke-linejoin:miter;stroke-opacity:1"
         inkscape:connector-curvature="0" />
      <path
         transform="matrix(0.26458333,0,0,0.26458333,0,87)"
         id="path4917"
         d="m 324.5918,289.59375 -8.14649,0.25977 3.96289,6.92187 z"
         style="fill:#ff0000;stroke:#000000;stroke-width:0.49941713px;stroke-linecap:butt;stroke-linejoin:miter;stroke-opacity:1"
         inkscape:connector-curvature="0" />
      <path
         transform="matrix(0.26458333,0,0,0.26458333,0,87)"
         id="path4913"
         d="m 329.23828,281.61133 -17.14844,0.63672 2.00586,3.5039 12.38672,0.5918 z"
         style="fill:#ff0000;stroke:#000000;stroke-width:0.49941713px;stroke-linecap:butt;stroke-linejoin:miter;stroke-opacity:1"
         inkscape:connector-curvature="0" />
      <path
         transform="matrix(0.26458333,0,0,0.26458333,0,87)"
         id="path4909"
         d="m 333.33008,274.58594 -25.24414,0.66797 1.45312,2.54101 21.39258,0.91016 z"
         style="fill:#ff0000;stroke:#000000;stroke-width:0.49941713px;stroke-linecap:butt;stroke-linejoin:miter;stroke-opacity:1"
         inkscape:connector-curvature="0" />
      <path
         transform="matrix(0.26458333,0,0,0.26458333,0,87)"
         id="path4905"
         d="m 337.19141,267.95508 -32.79297,0.86133 1.3164,2.29687 28.92774,1.2168 z"
         style="fill:#ff0000;stroke:#000000;stroke-width:0.49941713px;stroke-linecap:butt;stroke-linejoin:miter;stroke-opacity:1"
         inkscape:connector-curvature="0" />
      <path
         transform="matrix(0.26458333,0,0,0.26458333,0,87)"
         id="path4901"
         d="m 341.42969,260.67969 -41.19727,0.85937 1.25196,2.18946 37.04101,1.9375 z"
         style="fill:#ff0000;stroke:#000000;stroke-width:0.49941713px;stroke-linecap:butt;stroke-linejoin:miter;stroke-opacity:1"
         inkscape:connector-curvature="0" />
      <path
         transform="matrix(0.26458333,0,0,0.26458333,0,87)"
         id="path4897"
         d="m 345.63672,253.45312 -49.5918,0.7754 1.06836,1.86328 45.46289,2.61718 z"
         style="fill:#ff0000;stroke:#000000;stroke-width:0.49941713px;stroke-linecap:butt;stroke-linejoin:miter;stroke-opacity:1"
         inkscape:connector-curvature="0" />
      <path
         transform="matrix(0.26458333,0,0,0.26458333,0,87)"
         id="path4895"
         d="m 339.55078,220.75586 24.33789,1.35352 4.02735,-6.91407 -25.07032,-0.0977 z"
         style="fill:#ff0000;stroke:#000000;stroke-width:0.49941713px;stroke-linecap:butt;stroke-linejoin:miter;stroke-opacity:1"
         inkscape:connector-curvature="0" />
      <path
         transform="matrix(0.26458333,0,0,0.26458333,0,87)"
         id="path4891"
         d="m 334.35352,229.67969 24.19531,1.59961 5.0039,-8.59375 -25.57812,0.77539 z"
         style="fill:#ff0000;stroke:#000000;stroke-width:0.49941713px;stroke-linecap:butt;stroke-linejoin:miter;stroke-opacity:1"
         inkscape:connector-curvature="0" />
      <path
         transform="matrix(0.26458333,0,0,0.26458333,0,87)"
         id="path4887"
         d="m 330.00195,237.15234 24.26563,1.47852 3.74804,-6.43555 -25.35156,0.38477 z"
         style="fill:#ff0000;stroke:#000000;stroke-width:0.49941713px;stroke-linecap:butt;stroke-linejoin:miter;stroke-opacity:1"
         inkscape:connector-curvature="0" />
      <path
         transform="matrix(0.26458333,0,0,0.26458333,0,87)"
         id="path4883"
         d="m 326.35938,243.40625 24.39843,1.25391 2.88281,-4.95118 -25.27734,0.25782 z"
         style="fill:#ff0000;stroke:#000000;stroke-width:0.49941713px;stroke-linecap:butt;stroke-linejoin:miter;stroke-opacity:1"
         inkscape:connector-curvature="0" />
      <path
         transform="matrix(0.26458333,0,0,0.26458333,0,87)"
         id="path4879"
         d="m 321.95703,250.9668 24.46289,1.14258 3.46875,-5.95899 -25.58789,0.79102 z"
         style="fill:#ff0000;stroke:#000000;stroke-width:0.49941713px;stroke-linecap:butt;stroke-linejoin:miter;stroke-opacity:1"
         inkscape:connector-curvature="0" />
      <path
         transform="matrix(0.26458333,0,0,0.26458333,0,87)"
         id="path4875"
         d="m 317.45312,247.15234 -25.01562,0.77344 0.97656,1.70703 26.16016,1.22266 z"
         style="fill:#ff0000;stroke:#000000;stroke-width:0.49941713px;stroke-linecap:butt;stroke-linejoin:miter;stroke-opacity:1"
         inkscape:connector-curvature="0" />
      <path
         transform="matrix(0.26458333,0,0,0.26458333,0,87)"
         id="path4871"
         d="m 313.42578,240.11914 -25.31055,0.25977 0.62696,1.0957 26.23047,1.34766 z"
         style="fill:#ff0000;stroke:#000000;stroke-width:0.49941713px;stroke-linecap:butt;stroke-linejoin:miter;stroke-opacity:1"
         inkscape:connector-curvature="0" />
      <path
         transform="matrix(0.26458333,0,0,0.26458333,0,87)"
         id="path4867"
         d="m 309.31055,232.93359 -25.23828,0.38282 0.61328,1.07421 26.38086,1.60743 z"
         style="fill:#ff0000;stroke:#000000;stroke-width:0.49941713px;stroke-linecap:butt;stroke-linejoin:miter;stroke-opacity:1"
         inkscape:connector-curvature="0" />
      <path
         transform="matrix(0.26458333,0,0,0.26458333,0,87)"
         id="path4863"
         d="m 304.46875,224.47656 -25.02539,0.75782 0.48437,0.84374 26.46094,1.75 z"
         style="fill:#ff0000;stroke:#000000;stroke-width:0.49941713px;stroke-linecap:butt;stroke-linejoin:miter;stroke-opacity:1"
         inkscape:connector-curvature="0" />
      <path
         transform="matrix(0.26458333,0,0,0.26458333,0,87)"
         id="path6589-1"
         d="m 273.48242,214.82422 1.33399,2.32812 26.29687,1.46485 -2.11523,-3.69336 z"
         style="fill:#ff0000;stroke:#000000;stroke-width:0.49941713px;stroke-linecap:butt;stroke-linejoin:miter;stroke-opacity:1"
         inkscape:connector-curvature="0" />
    </g>
    <g
       id="g3985"
       transform="matrix(1.0671221,0,0,1.1423248,-3.3078772,-38.968812)"
       style="stroke-width:0.90572876">
      <text
         transform="scale(0.99586718,1.00415)"
         id="text6608"
         y="266.59967"
         x="11.376676"
         style="font-style:normal;font-weight:normal;font-size:23.81495285px;line-height:14.88434505px;font-family:sans-serif;letter-spacing:0px;word-spacing:0px;fill:#000000;fill-opacity:1;stroke:none;stroke-width:0.23964073"
         xml:space="preserve"><tspan
           style="font-style:normal;font-variant:normal;font-weight:bold;font-stretch:normal;font-size:8.73215008px;font-family:Verdana;-inkscape-font-specification:'Verdana Bold';fill:#ff0000;stroke-width:0.23964073"
           y="266.59967"
           x="11.376676"
           id="tspan6606"
           sodipodi:role="line">Bar Voo</tspan></text>
      <text
         transform="scale(1.0038988,0.99611631)"
         id="text3969"
         y="280.02481"
         x="10.84456"
         style="font-style:normal;font-variant:normal;font-weight:normal;font-stretch:normal;font-size:31.11434937px;line-height:19.44646835px;font-family:'OCR A Extended';-inkscape-font-specification:'OCR A Extended';letter-spacing:0px;word-spacing:0px;fill:#000080;fill-opacity:1;stroke:none;stroke-width:0.23964073"
         xml:space="preserve"><tspan
           style="font-style:normal;font-variant:normal;font-weight:bold;font-stretch:normal;font-size:11.40859604px;font-family:Verdana;-inkscape-font-specification:'Verdana Bold';fill:#000080;stroke-width:0.23964073"
           y="280.02481"
           x="10.84456"
           id="tspan3967"
           sodipodi:role="line">LIVRE</tspan></text>
    </g>
  </g>
</svg>
